<?xml version="1.0" encoding="UTF-8" standalone="no"?>
<!-- Created with Inkscape (http://www.inkscape.org/) -->

<svg
   xmlns:dc="http://purl.org/dc/elements/1.1/"
   xmlns:cc="http://creativecommons.org/ns#"
   xmlns:rdf="http://www.w3.org/1999/02/22-rdf-syntax-ns#"
   xmlns:svg="http://www.w3.org/2000/svg"
   xmlns="http://www.w3.org/2000/svg"
   xmlns:sodipodi="http://sodipodi.sourceforge.net/DTD/sodipodi-0.dtd"
   xmlns:inkscape="http://www.inkscape.org/namespaces/inkscape"
   width="61.039112"
   height="28.777205"
   id="svg3697"
   version="1.1"
   inkscape:version="0.48.2 r9819"
   sodipodi:docname="sofa.svg">
  <defs
     id="defs3699">
    <inkscape:path-effect
       effect="spiro"
       id="path-effect2877"
       is_visible="true" />
    <inkscape:path-effect
       effect="spiro"
       id="path-effect2871"
       is_visible="true" />
    <inkscape:path-effect
       effect="spiro"
       id="path-effect2859"
       is_visible="true" />
    <inkscape:perspective
       sodipodi:type="inkscape:persp3d"
       inkscape:vp_x="0 : 526.18109 : 1"
       inkscape:vp_y="0 : 1000 : 0"
       inkscape:vp_z="744.09448 : 526.18109 : 1"
       inkscape:persp3d-origin="372.04724 : 350.78739 : 1"
       id="perspective3705" />
    <inkscape:perspective
       id="perspective3715"
       inkscape:persp3d-origin="0.5 : 0.33333333 : 1"
       inkscape:vp_z="1 : 0.5 : 1"
       inkscape:vp_y="0 : 1000 : 0"
       inkscape:vp_x="0 : 0.5 : 1"
       sodipodi:type="inkscape:persp3d" />
    <filter
       inkscape:collect="always"
       id="filter4253"
       x="-0.15698896"
       width="1.313978"
       y="-0.13660081"
       height="1.2732016"
       color-interpolation-filters="sRGB">
      <feGaussianBlur
         inkscape:collect="always"
         stdDeviation="5.3452529"
         id="feGaussianBlur4255" />
    </filter>
    <filter
       inkscape:collect="always"
       id="filter4277"
       color-interpolation-filters="sRGB">
      <feGaussianBlur
         inkscape:collect="always"
         stdDeviation="0.87695561"
         id="feGaussianBlur4279" />
    </filter>
    <filter
       inkscape:collect="always"
       id="filter4299"
       x="-0.071777448"
       width="1.1435549"
       y="-0.16016693"
       height="1.320334"
       color-interpolation-filters="sRGB">
      <feGaussianBlur
         inkscape:collect="always"
         stdDeviation="6.9999609"
         id="feGaussianBlur4301" />
    </filter>
    <filter
       inkscape:collect="always"
       id="filter4311"
       x="-0.10244355"
       width="1.2048872"
       y="-0.2007179"
       height="1.4014359"
       color-interpolation-filters="sRGB">
      <feGaussianBlur
         inkscape:collect="always"
         stdDeviation="8.772207"
         id="feGaussianBlur4313" />
    </filter>
    <filter
       inkscape:collect="always"
       id="filter4347"
       x="-0.17493831"
       width="1.3498766"
       y="-0.12540482"
       height="1.2508096"
       color-interpolation-filters="sRGB">
      <feGaussianBlur
         inkscape:collect="always"
         stdDeviation="5.1302016"
         id="feGaussianBlur4349" />
    </filter>
    <filter
       inkscape:collect="always"
       id="filter4355"
       x="-0.14869566"
       width="1.2973913"
       y="-0.10058823"
       height="1.2011765"
       color-interpolation-filters="sRGB">
      <feGaussianBlur
         inkscape:collect="always"
         stdDeviation="2.6070035"
         id="feGaussianBlur4357" />
    </filter>
    <filter
       inkscape:collect="always"
       id="filter4381"
       x="-0.016478304"
       width="1.0329566"
       y="-0.31220415"
       height="1.6244082"
       color-interpolation-filters="sRGB">
      <feGaussianBlur
         inkscape:collect="always"
         stdDeviation="2.897745"
         id="feGaussianBlur4383" />
    </filter>
  </defs>
  <sodipodi:namedview
     id="base"
     pagecolor="#ffffff"
     bordercolor="#666666"
     borderopacity="1.0"
     inkscape:pageopacity="0.0"
     inkscape:pageshadow="2"
     inkscape:zoom="0.41986485"
     inkscape:cx="-284.03755"
     inkscape:cy="-25.900391"
     inkscape:document-units="px"
     inkscape:current-layer="layer1"
     showgrid="false"
     inkscape:window-width="1366"
     inkscape:window-height="746"
     inkscape:window-x="-8"
     inkscape:window-y="191"
     inkscape:window-maximized="1"
     fit-margin-top="0"
     fit-margin-left="0"
     fit-margin-right="0"
     fit-margin-bottom="0" />
  <metadata
     id="metadata3702">
    <rdf:RDF>
      <cc:Work
         rdf:about="">
        <dc:format>image/svg+xml</dc:format>
        <dc:type
           rdf:resource="http://purl.org/dc/dcmitype/StillImage" />
        <dc:title />
      </cc:Work>
    </rdf:RDF>
  </metadata>
  <g
     inkscape:label="Layer 1"
     inkscape:groupmode="layer"
     id="new_obj">
   <g  transform="translate(-345.69321,-582.72208)">
    <g
       id="g2879"
       transform="matrix(0.1,0,0,0.1,338.62607,537.40553)">
      <path
         sodipodi:nodetypes="ccccccc"
         id="path2867"
         d="m 74.431818,724.52128 12.5,-0.56819 40.340912,-30.68182 0,11.93182 L 86.931818,739.294 75,739.86218 74.431818,724.52128 z"
         style="fill:#898788;fill-opacity:1;stroke:#000000;stroke-width:1px;stroke-linecap:butt;stroke-linejoin:miter;stroke-opacity:1"
         inkscape:connector-curvature="0" />
      <path
         sodipodi:nodetypes="ccccccc"
         id="path2873"
         d="m 625.56818,688.72581 0.56818,15.9091 40.90909,35.79545 11.36364,-1.13636 0.56818,-11.36364 -10.22727,-0.56818 -43.18182,-38.63637 z"
         style="fill:#919596;fill-opacity:1;stroke:#000000;stroke-width:1px;stroke-linecap:butt;stroke-linejoin:miter;stroke-opacity:1"
         inkscape:connector-curvature="0" />
      <path
         sodipodi:nodetypes="cccccc"
         id="path2855"
         d="m 92.307693,633.48107 1.398601,61.53846 566.433566,0.6993 -0.6993,-59.44056 -567.132868,-2.0979 10e-7,-0.6993 z"
         style="fill:#b25728;fill-opacity:1;stroke:#000000;stroke-width:1px;stroke-linecap:butt;stroke-linejoin:miter;stroke-opacity:1"
         inkscape:connector-curvature="0" />
      <path
         sodipodi:nodetypes="ccccccc"
         id="path4367"
         d="m 655.24476,597.11743 -17.83217,-12.23776 c -119.4056,-7.05129 -343.007,-25.29138 -523.95105,2.62237 l -16.958043,6.11888 c -4.662005,15.61772 -3.729604,27.03963 -1.398602,40.55944 l 560.139865,1.39861 0,-38.46154 z"
         style="fill:#c36628;fill-opacity:1;stroke:#000000;stroke-width:1px;stroke-linecap:butt;stroke-linejoin:miter;stroke-opacity:1"
         inkscape:connector-curvature="0" />
      <path
         sodipodi:nodetypes="ccccc"
         id="path4371"
         d="m 171.32867,595.01952 421.67832,2.09791 c -9.55711,-11.88811 -31.00233,-11.18881 -34.96503,-16.78322 -156.87646,-4.8951 -225.64102,-8.39161 -342.65734,-2.0979 -15.38462,4.8951 -48.25175,1.3986 -44.05595,16.78321 z"
         style="opacity:0.8495575;fill:#f5a148;fill-opacity:1;stroke:#f2a046;stroke-width:1px;stroke-linecap:butt;stroke-linejoin:miter;stroke-opacity:1;filter:url(#filter4381)"
         inkscape:connector-curvature="0" />
      <path
         sodipodi:nodetypes="cccccc"
         id="path3721"
         d="m 138.11175,502.73378 c 4.3271,-9.72507 -11.47004,-34.08595 23.95816,-31.00468 l 202.75007,2.39843 c 15.15518,-1.73624 5.91733,67.8771 8.876,100.29108 l -173.57487,3.00826 c -19.45014,-23.67805 -35.24132,-68.69998 -62.00936,-74.69309 z"
         style="fill:#e48532;fill-opacity:1;stroke:#000000;stroke-width:2;stroke-linecap:butt;stroke-linejoin:miter;stroke-miterlimit:4;stroke-opacity:1;stroke-dasharray:none"
         inkscape:connector-curvature="0" />
      <path
         sodipodi:nodetypes="ccccc"
         id="path4233"
         d="m 84.155917,504.12907 82.936263,94.52295 c 4.47205,-17.48166 12.60306,-20.32752 35.36988,-21.34389 -9.96048,-0.8131 -30.89782,-63.8284 -65.86115,-76.83801 l -52.444993,3.65895 z"
         style="fill:#f39a46;fill-opacity:1;stroke:#000000;stroke-width:2;stroke-linecap:butt;stroke-linejoin:miter;stroke-miterlimit:4;stroke-opacity:1;stroke-dasharray:none"
         inkscape:connector-curvature="0" />
      <path
         sodipodi:nodetypes="ccc"
         id="path4235"
         d="m 84.765742,504.7389 c 27.238868,31.30437 54.477748,62.60875 81.716618,93.91312 -1.6262,-17.27839 -28.25525,-86.39194 -81.716618,-93.91312 z"
         style="fill:#cd702a;fill-opacity:1;stroke:#cd702a;stroke-width:1px;stroke-linecap:butt;stroke-linejoin:miter;stroke-opacity:1;filter:url(#filter4253)"
         inkscape:connector-curvature="0" />
      <path
         sodipodi:nodetypes="ccc"
         id="path4257"
         d="m 83.546091,504.7389 c 28.255249,31.9142 56.510489,63.8284 84.765739,95.7426 -19.10786,-9.35066 -74.195432,-25.40939 -84.765739,-95.7426 z"
         style="fill:#aa6b3e;fill-opacity:1;stroke:#000000;stroke-width:1px;stroke-linecap:butt;stroke-linejoin:miter;stroke-opacity:1"
         inkscape:connector-curvature="0" />
      <path
         sodipodi:nodetypes="ccccccccc"
         id="path2861"
         d="m 86.713287,529.28526 2.097902,193.00699 35.664331,-26.57342 -29.370625,0 -2.797203,-63.63637 3.496504,0.6993 c -0.2331,-4.8951 -6.060606,-25.17482 1.398601,-37.76223 l -4.895105,-65.03497 -5.594405,-0.6993 z"
         style="fill:#984c28;fill-opacity:1;stroke:#000000;stroke-width:1px;stroke-linecap:butt;stroke-linejoin:miter;stroke-opacity:1"
         inkscape:connector-curvature="0" />
      <path
         sodipodi:nodetypes="cccc"
         id="path4259"
         d="m 90.254172,530.96139 c 4.268778,27.64542 5.488429,41.87469 4.268778,62.81203 15.04236,-6.91136 25.20612,-7.11463 45.12709,-6.09826 -15.04236,-11.58668 -36.18299,-17.07511 -49.395868,-56.71377 z"
         style="fill:#000300;fill-opacity:1;stroke:#000300;stroke-width:1px;stroke-linecap:butt;stroke-linejoin:miter;stroke-opacity:1;filter:url(#filter4277)"
         inkscape:connector-curvature="0" />
      <path
         sodipodi:nodetypes="ccccc"
         id="path4281"
         d="m 148.79742,472.41815 c 62.40547,27.03559 142.49589,20.53079 223.80595,100.6212 l -170.14131,4.26878 c -10.57031,-2.84585 -30.288,-61.18582 -63.42185,-76.83801 0.8131,-8.53756 -5.08188,-24.39302 9.75721,-28.05197 z"
         style="opacity:0.41592922;fill:#be5d26;fill-opacity:1;stroke:#c15e25;stroke-width:2;stroke-linecap:butt;stroke-linejoin:miter;stroke-miterlimit:4;stroke-opacity:1;stroke-dasharray:none;filter:url(#filter4299)"
         inkscape:connector-curvature="0" />
      <path
         sodipodi:nodetypes="csccccc"
         id="path4303"
         d="m 375.6525,473.63779 c 16.33328,2.80263 159.31171,2.26736 231.68508,-0.34102 10.03544,-0.36168 2.52762,20.47813 5.53703,29.61266 -28.45852,21.95371 -33.74368,29.88144 -48.78604,51.22533 l -4.8786,26.2225 c -76.63474,-4.06551 -116.07012,-6.30153 -184.1673,-4.87861 l 0.60983,-101.84086 z"
         style="fill:#ec8c36;fill-opacity:1;stroke:#000000;stroke-width:2;stroke-linecap:butt;stroke-linejoin:miter;stroke-miterlimit:4;stroke-opacity:1;stroke-dasharray:none"
         inkscape:connector-curvature="0" />
      <path
         sodipodi:nodetypes="ccccc"
         id="path4305"
         d="m 376.87215,474.85745 203.68171,55.49412 c -12.80634,16.46529 -18.29477,21.34389 -21.95372,49.39586 -67.28408,-3.86223 -119.32252,-7.11463 -183.55747,-4.26878 l 1.82948,-100.6212 z"
         style="opacity:0.82743363;fill:#c46428;fill-opacity:1;stroke:#c46428;stroke-width:1px;stroke-linecap:butt;stroke-linejoin:miter;stroke-opacity:1;filter:url(#filter4311)"
         inkscape:connector-curvature="0" />
      <path
         sodipodi:nodetypes="cccccc"
         id="path4315"
         d="m 614.70409,502.2996 c 21.54717,-6.50481 34.55677,-4.47206 51.83516,-4.87861 l -70.12993,98.79173 c -5.89498,-2.72248 -11.78996,-7.04801 -17.68494,-14.63581 l -19.51441,0 c -3.45568,-18.49804 14.43254,-50.41224 55.49412,-79.27731 z"
         style="fill:#ec8c36;fill-opacity:1;stroke:#000000;stroke-width:2;stroke-linecap:butt;stroke-linejoin:miter;stroke-miterlimit:4;stroke-opacity:1;stroke-dasharray:none"
         inkscape:connector-curvature="0" />
      <path
         sodipodi:nodetypes="ccc"
         id="path4317"
         d="m 596.40932,596.21272 c -2.23603,-54.07119 9.55393,-78.87076 70.12993,-98.1819 -23.37664,32.7273 -46.75329,65.4546 -70.12993,98.1819 z"
         style="opacity:0.96017701;fill:#d17431;fill-opacity:1;stroke:#d17431;stroke-width:1px;stroke-linecap:butt;stroke-linejoin:miter;stroke-opacity:1;filter:url(#filter4347)"
         inkscape:connector-curvature="0" />
      <path
         sodipodi:nodetypes="ccc"
         id="path4351"
         d="m 596.40932,596.82254 c 22.56354,-32.32075 46.95657,-65.86115 69.52011,-98.1819 10.36704,29.88145 -48.17622,103.67033 -69.52011,98.1819 z"
         style="fill:#cf7036;fill-opacity:1;stroke:#000000;stroke-width:1px;stroke-linecap:butt;stroke-linejoin:miter;stroke-opacity:1"
         inkscape:connector-curvature="0" />
      <path
         sodipodi:nodetypes="cccc"
         id="path4353"
         d="m 660.441,533.4007 -1.82948,62.20219 c -14.83908,-7.92773 -35.1666,-9.14738 -40.24847,-6.70807 8.74083,-7.31791 30.28799,-28.6618 42.07795,-55.49412 z"
         style="opacity:0.88938054;fill:#000000;stroke:#000000;stroke-width:1px;stroke-linecap:butt;stroke-linejoin:miter;stroke-opacity:1;filter:url(#filter4355)"
         inkscape:connector-curvature="0" />
      <path
         id="path4359"
         d="m 662.27048,527.91227 16.46528,0 1.82948,199.41293 -16.46529,0 -1.82947,-199.41293 z"
         style="fill:#c66b34;fill-opacity:1;stroke:#000000;stroke-width:1px;stroke-linecap:butt;stroke-linejoin:miter;stroke-opacity:1"
         inkscape:connector-curvature="0" />
      <path
         sodipodi:nodetypes="ccccc"
         id="path4363"
         d="m 678.73576,532.79087 c -4.26878,-2.59393 -8.53755,-3.08995 -12.80633,0.60983 l 1.21965,193.9245 12.80634,0 -1.21966,-194.53433 z"
         style="fill:#b5bab4;fill-opacity:1;stroke:#000000;stroke-width:1px;stroke-linecap:butt;stroke-linejoin:miter;stroke-opacity:1"
         inkscape:connector-curvature="0" />
      <path
         id="path4365"
         d="m 663.49013,528.52209 -7.31791,15.85546 -0.60982,90.25418 5.48843,1.21965 -1.21966,60.37272 -29.27162,0 34.15023,27.44215 -1.21965,-195.14416 z"
         style="fill:#8d4129;fill-opacity:1;stroke:#000000;stroke-width:1px;stroke-linecap:butt;stroke-linejoin:miter;stroke-opacity:1"
         inkscape:connector-curvature="0" />
      <path
         style="fill:none;stroke:#000000;stroke-width:1px;stroke-linecap:butt;stroke-linejoin:miter;stroke-opacity:1"
         d="m 98.601399,653.06148 548.251751,1.3986"
         id="path2857"
         inkscape:connector-curvature="0" />
      <path
         sodipodi:nodetypes="ccccc"
         id="path2863"
         d="m 87.418283,533.40997 c -3.966501,-2.48329 -9.332944,-2.9348 -13.999416,0.67726 l 0.699971,190.31063 15.399358,-0.67727 -2.099913,-190.31062 z"
         style="fill:#9b9484;fill-opacity:1;stroke:#000000;stroke-width:0.98458761px;stroke-linecap:butt;stroke-linejoin:miter;stroke-opacity:1"
         inkscape:connector-curvature="0" />
      <path
         sodipodi:nodetypes="ccccc"
         id="path2865"
         d="m 72.727273,533.044 3.977272,-5.68182 9.659091,-2.84091 c 0.378788,2.84091 5.303031,5.68182 1.136364,8.52273 -5.492424,-2.27273 -9.848485,-1.13636 -14.772727,0 z"
         style="fill:#663f2f;fill-opacity:1;stroke:#000000;stroke-width:1px;stroke-linecap:butt;stroke-linejoin:miter;stroke-opacity:1"
         inkscape:connector-curvature="0" />
      <path
         style="fill:none;stroke:#000000;stroke-width:1px;stroke-linecap:butt;stroke-linejoin:miter;stroke-opacity:1"
         d="m 88.068182,735.31673 0,-9.65909"
         id="path2869"
         inkscape:connector-curvature="0" />
      <path
         style="fill:none;stroke:#000000;stroke-width:1px;stroke-linecap:butt;stroke-linejoin:miter;stroke-opacity:1"
         d="m 667.61364,736.45309 0,-8.52273"
         id="path2875"
         inkscape:connector-curvature="0" />
    </g>
  </g>
  </g>
</svg>
